<svg width="130" height="23" viewBox="0 0 130 23" fill="none" xmlns="http://www.w3.org/2000/svg">
<path d="M0 18.012V0.277108H6.31628C7.61024 0.277108 8.69586 0.531124 9.57312 1.03916C10.4559 1.54719 11.122 2.24573 11.5716 3.13479C12.0267 4.01807 12.2542 5.02259 12.2542 6.14834C12.2542 7.28564 12.0267 8.29593 11.5716 9.17922C11.1166 10.0625 10.4449 10.7582 9.55667 11.2662C8.66844 11.7685 7.57461 12.0196 6.27516 12.0196H2.08898V9.37839H5.86395C6.62058 9.37839 7.24015 9.23983 7.72264 8.96273C8.20514 8.68562 8.56153 8.30459 8.79181 7.81965C9.02757 7.33471 9.14545 6.77761 9.14545 6.14834C9.14545 5.51908 9.02757 4.96486 8.79181 4.48569C8.56153 4.00653 8.2024 3.63416 7.71442 3.3686C7.23193 3.09726 6.60962 2.9616 5.8475 2.9616H3.05123V18.012H0Z" fill="#0D0056"/>
<path d="M17.7502 10.2184V18.012H14.773V0.277108H17.6844V6.97101H17.8324C18.1285 6.22051 18.5863 5.62876 19.2059 5.19578C19.8309 4.75703 20.6259 4.53765 21.5909 4.53765C22.4682 4.53765 23.233 4.73105 23.8855 5.11785C24.538 5.50464 25.0424 6.07041 25.3988 6.81514C25.7607 7.55986 25.9416 8.46913 25.9416 9.54292V18.012H22.9644V10.0279C22.9644 9.13303 22.7451 8.43737 22.3064 7.94089C21.8733 7.43863 21.2647 7.1875 20.4806 7.1875C19.9543 7.1875 19.4827 7.30874 19.066 7.55121C18.6548 7.7879 18.3313 8.1314 18.0956 8.5817C17.8653 9.032 17.7502 9.57756 17.7502 10.2184Z" fill="#0D0056"/>
<path d="M32.6115 18.2805C31.811 18.2805 31.09 18.1304 30.4485 17.8302C29.8125 17.5242 29.3081 17.0739 28.9352 16.4793C28.5679 15.8847 28.3842 15.1515 28.3842 14.2797C28.3842 13.5292 28.5158 12.9086 28.779 12.4179C29.0422 11.9272 29.4013 11.5346 29.8564 11.2402C30.3114 10.9458 30.8241 10.7235 31.3943 10.5734C31.97 10.4175 32.5649 10.305 33.179 10.2357C33.9192 10.1549 34.5196 10.0827 34.9801 10.0192C35.4407 9.94992 35.7751 9.84601 35.9835 9.70745C36.1973 9.56313 36.3042 9.34086 36.3042 9.04066V8.9887C36.3042 8.33635 36.1206 7.8312 35.7532 7.47327C35.3859 7.11534 34.8568 6.93637 34.1659 6.93637C33.4367 6.93637 32.8582 7.10379 32.4306 7.43863C32.0084 7.77347 31.7233 8.16893 31.5752 8.625L28.7954 8.20934C29.0147 7.4011 29.3766 6.72565 29.881 6.18298C30.3855 5.63454 31.0023 5.22465 31.7315 4.95331C32.4607 4.67621 33.2667 4.53765 34.1495 4.53765C34.7581 4.53765 35.3639 4.6127 35.967 4.7628C36.5702 4.9129 37.1212 5.16114 37.6201 5.50753C38.1191 5.84814 38.5193 6.31288 38.8209 6.90173C39.1279 7.49059 39.2814 8.22666 39.2814 9.10994V18.012H36.4194V16.1849H36.3207C36.1398 16.5543 35.8848 16.9007 35.5558 17.224C35.2323 17.5415 34.8239 17.7984 34.3304 17.9947C33.8424 18.1852 33.2695 18.2805 32.6115 18.2805ZM33.3846 15.977C33.9822 15.977 34.5004 15.8529 34.939 15.6047C35.3776 15.3507 35.7148 15.0158 35.9506 14.6002C36.1918 14.1845 36.3125 13.7313 36.3125 13.2406V11.6732C36.2193 11.754 36.0602 11.8291 35.8354 11.8983C35.6161 11.9676 35.3694 12.0282 35.0953 12.0802C34.8211 12.1322 34.5497 12.1783 34.2811 12.2188C34.0124 12.2592 33.7794 12.2938 33.582 12.3227C33.1379 12.3862 32.7404 12.4901 32.3895 12.6344C32.0386 12.7787 31.7617 12.9808 31.5588 13.2406C31.3559 13.4946 31.2545 13.8237 31.2545 14.2278C31.2545 14.8051 31.4546 15.241 31.8549 15.5354C32.2551 15.8298 32.765 15.977 33.3846 15.977Z" fill="#0D0056"/>
<path d="M42.2751 18.012V4.71084H45.1618V6.92771H45.2934C45.5237 6.15989 45.9185 5.56815 46.4777 5.15249C47.0425 4.73105 47.6867 4.52033 48.4105 4.52033C48.5749 4.52033 48.7586 4.52899 48.9615 4.54631C49.1698 4.55786 49.3425 4.57806 49.4796 4.60693V7.49059C49.3535 7.4444 49.1534 7.40399 48.8792 7.36935C48.6106 7.32894 48.3501 7.30873 48.0979 7.30873C47.5551 7.30873 47.0671 7.43286 46.634 7.6811C46.2063 7.92357 45.8691 8.2613 45.6224 8.69428C45.3757 9.12726 45.2523 9.62663 45.2523 10.1924V18.012H42.2751Z" fill="#0D0056"/>
<path d="M51.4576 18.012V4.71084H54.3032V6.97101H54.4512C54.7144 6.20896 55.1503 5.61433 55.7589 5.18712C56.3675 4.75414 57.094 4.53765 57.9383 4.53765C58.7937 4.53765 59.5147 4.75703 60.1013 5.19578C60.6935 5.62876 61.1102 6.22051 61.3514 6.97101H61.483C61.7626 6.23205 62.2342 5.6432 62.8976 5.20444C63.5665 4.75992 64.3588 4.53765 65.2744 4.53765C66.4368 4.53765 67.3853 4.92445 68.12 5.69804C68.8548 6.47164 69.2221 7.60028 69.2221 9.08396V18.012H66.2367V9.5689C66.2367 8.74335 66.0283 8.14006 65.6116 7.75904C65.1949 7.37224 64.685 7.17884 64.0819 7.17884C63.3636 7.17884 62.8017 7.41554 62.3959 7.88893C61.9957 8.35655 61.7955 8.96561 61.7955 9.71611V18.012H58.8759V9.43901C58.8759 8.75201 58.6785 8.20356 58.2838 7.79367C57.8945 7.38379 57.3846 7.17884 56.754 7.17884C56.3264 7.17884 55.9371 7.2943 55.5862 7.52523C55.2353 7.75038 54.9556 8.07078 54.7473 8.48645C54.5389 8.89634 54.4348 9.3755 54.4348 9.92395V18.012H51.4576Z" fill="#0D0056"/>
<path d="M75.8776 18.2805C75.0771 18.2805 74.3562 18.1304 73.7147 17.8302C73.0786 17.5242 72.5742 17.0739 72.2014 16.4793C71.834 15.8847 71.6503 15.1515 71.6503 14.2797C71.6503 13.5292 71.7819 12.9086 72.0451 12.4179C72.3083 11.9272 72.6674 11.5346 73.1225 11.2402C73.5776 10.9458 74.0902 10.7235 74.6605 10.5734C75.2362 10.4175 75.831 10.305 76.4451 10.2357C77.1853 10.1549 77.7857 10.0827 78.2463 10.0192C78.7068 9.94992 79.0413 9.84601 79.2496 9.70745C79.4635 9.56313 79.5704 9.34086 79.5704 9.04066V8.9887C79.5704 8.33635 79.3867 7.8312 79.0193 7.47327C78.652 7.11534 78.1229 6.93637 77.432 6.93637C76.7028 6.93637 76.1244 7.10379 75.6967 7.43863C75.2745 7.77347 74.9894 8.16893 74.8414 8.625L72.0616 8.20934C72.2809 7.4011 72.6427 6.72565 73.1472 6.18298C73.6516 5.63454 74.2684 5.22465 74.9976 4.95331C75.7269 4.67621 76.5329 4.53765 77.4156 4.53765C78.0242 4.53765 78.6301 4.6127 79.2332 4.7628C79.8363 4.9129 80.3873 5.16114 80.8863 5.50753C81.3852 5.84814 81.7855 6.31288 82.087 6.90173C82.3941 7.49059 82.5476 8.22666 82.5476 9.10994V18.012H79.6855V16.1849H79.5868C79.4059 16.5543 79.1509 16.9007 78.822 17.224C78.4985 17.5415 78.09 17.7984 77.5965 17.9947C77.1086 18.1852 76.5356 18.2805 75.8776 18.2805ZM76.6507 15.977C77.2484 15.977 77.7665 15.8529 78.2051 15.6047C78.6438 15.3507 78.981 15.0158 79.2167 14.6002C79.458 14.1845 79.5786 13.7313 79.5786 13.2406V11.6732C79.4854 11.754 79.3264 11.8291 79.1016 11.8983C78.8823 11.9676 78.6355 12.0282 78.3614 12.0802C78.0873 12.1322 77.8158 12.1783 77.5472 12.2188C77.2785 12.2592 77.0455 12.2938 76.8481 12.3227C76.404 12.3862 76.0065 12.4901 75.6556 12.6344C75.3047 12.7787 75.0278 12.9808 74.8249 13.2406C74.6221 13.4946 74.5206 13.8237 74.5206 14.2278C74.5206 14.8051 74.7208 15.241 75.121 15.5354C75.5213 15.8298 76.0312 15.977 76.6507 15.977Z" fill="#0D0056"/>
<path d="M91.0515 18.2718C89.7905 18.2718 88.7076 17.9803 87.8029 17.3972C86.9037 16.8141 86.2101 16.0088 85.7222 14.9812C85.2397 13.9478 84.9984 12.7585 84.9984 11.4134C84.9984 10.0625 85.2452 8.87036 85.7386 7.83697C86.2321 6.79782 86.9284 5.98958 87.8276 5.41227C88.7323 4.82919 89.8014 4.53765 91.0351 4.53765C92.0604 4.53765 92.9678 4.73682 93.7573 5.13517C94.5524 5.52774 95.1856 6.08484 95.6572 6.80648C96.1287 7.52234 96.3973 8.35944 96.4631 9.31777H93.6175C93.5024 8.67696 93.2282 8.14295 92.7951 7.71574C92.3674 7.28276 91.7945 7.06626 91.0762 7.06626C90.4676 7.06626 89.933 7.23946 89.4725 7.58584C89.0119 7.92646 88.6528 8.41717 88.3951 9.05798C88.1429 9.6988 88.0168 10.4666 88.0168 11.3614C88.0168 12.2678 88.1429 13.0472 88.3951 13.6995C88.6473 14.3461 89.0009 14.8455 89.456 15.1977C89.9166 15.5441 90.4566 15.7172 91.0762 15.7172C91.5148 15.7172 91.9069 15.6306 92.2523 15.4575C92.6032 15.2785 92.8965 15.0216 93.1323 14.6867C93.3681 14.3519 93.5298 13.9449 93.6175 13.4657H96.4631C96.3919 14.4068 96.1287 15.241 95.6736 15.9684C95.2185 16.69 94.599 17.2558 93.8149 17.6657C93.0309 18.0698 92.1097 18.2718 91.0515 18.2718Z" fill="#0D0056"/>
<path d="M100.758 23C100.353 23 99.977 22.9654 99.6316 22.8961C99.2916 22.8326 99.0202 22.7575 98.8174 22.6709L99.5082 20.2289C99.9413 20.3617 100.328 20.4252 100.668 20.4194C101.008 20.4137 101.307 20.3011 101.564 20.0817C101.827 19.8681 102.05 19.5102 102.23 19.0079L102.485 18.2892L97.9045 4.71084H101.063L103.974 14.756H104.106L107.025 4.71084H110.192L105.134 19.6227C104.898 20.3271 104.585 20.9303 104.196 21.4326C103.807 21.9406 103.33 22.3274 102.765 22.593C102.206 22.8643 101.537 23 100.758 23Z" fill="#0D0056"/>
<path d="M116.512 9.14458C116.512 8.19779 116.731 7.33471 117.17 6.55535C117.609 5.77598 118.198 5.15537 118.938 4.69352C119.678 4.23168 120.498 4.00075 121.397 4.00075C122.176 4.00075 122.894 4.17683 123.552 4.52899C124.215 4.88115 124.764 5.3632 125.197 5.97515C125.63 6.58132 125.899 7.26832 126.003 8.03614H124.013C123.903 7.44152 123.599 6.95658 123.1 6.58133C122.601 6.2003 122.033 6.00979 121.397 6.00979C120.849 6.00979 120.35 6.15123 119.9 6.43411C119.451 6.71699 119.092 7.09513 118.823 7.56852C118.554 8.04192 118.42 8.56727 118.42 9.14458C118.42 9.72189 118.554 10.2472 118.823 10.7206C119.092 11.194 119.451 11.5722 119.9 11.855C120.35 12.1379 120.849 12.2794 121.397 12.2794C122.033 12.2794 122.571 12.0917 123.009 11.7165C123.453 11.3355 123.733 10.8476 123.848 10.253H125.838C125.734 11.0208 125.479 11.7107 125.074 12.3227C124.668 12.9288 124.147 13.408 123.511 13.7602C122.88 14.1123 122.176 14.2884 121.397 14.2884C120.498 14.2884 119.678 14.0575 118.938 13.5956C118.198 13.1338 117.609 12.5132 117.17 11.7338C116.731 10.9544 116.512 10.0914 116.512 9.14458ZM121.315 18.2892C120.12 18.2892 118.996 18.0525 117.943 17.5791C116.896 17.1057 115.972 16.4504 115.171 15.6133C114.376 14.7705 113.751 13.7977 113.296 12.695C112.847 11.5924 112.625 10.4089 112.63 9.14458C112.636 7.88027 112.863 6.69679 113.313 5.59413C113.768 4.49147 114.393 3.52159 115.188 2.68449C115.983 1.84162 116.904 1.18348 117.951 0.71009C118.998 0.236696 120.12 0 121.315 0C122.516 0 123.64 0.236696 124.687 0.71009C125.74 1.18348 126.661 1.84162 127.45 2.68449C128.245 3.52159 128.868 4.49147 129.317 5.59413C129.767 6.69679 129.994 7.88027 130 9.14458C130.005 10.4089 129.783 11.5924 129.334 12.695C128.884 13.7977 128.262 14.7705 127.467 15.6133C126.672 16.4504 125.748 17.1057 124.695 17.5791C123.642 18.0525 122.516 18.2892 121.315 18.2892ZM121.315 16.2801C122.253 16.2801 123.133 16.0954 123.955 15.7259C124.777 15.3564 125.498 14.8455 126.118 14.1931C126.738 13.5408 127.223 12.7845 127.574 11.9243C127.925 11.0584 128.097 10.1347 128.092 9.15324C128.086 8.16604 127.908 7.23946 127.557 6.37349C127.206 5.50753 126.721 4.74837 126.102 4.09601C125.482 3.44365 124.764 2.93273 123.947 2.56325C123.13 2.19378 122.253 2.00904 121.315 2.00904C120.383 2.00904 119.508 2.19378 118.691 2.56325C117.874 2.93273 117.156 3.44654 116.537 4.10467C115.917 4.75703 115.429 5.51619 115.073 6.38215C114.722 7.24234 114.544 8.16604 114.538 9.15324C114.533 10.1289 114.705 11.0497 115.056 11.9157C115.407 12.7759 115.892 13.5321 116.512 14.1845C117.137 14.8368 117.858 15.3507 118.675 15.7259C119.497 16.0954 120.377 16.2801 121.315 16.2801Z" fill="#0D0056"/>
</svg>
